<svg xmlns="http://www.w3.org/2000/svg" width="960" height="480" viewBox="0 0 960 480">
<rect width="100%" height="100%" fill="white"/>
<text x="480.0" y="28" text-anchor="middle" font-family="sans-serif" font-size="20" font-weight="bold">Selection score progression</text>
<line x1="75" y1="415.0" x2="935" y2="415.0" stroke="#e5e7eb"/>
<text x="65" y="419.0" text-anchor="end" font-family="sans-serif" font-size="12">0.466</text>
<line x1="75" y1="343.0" x2="935" y2="343.0" stroke="#e5e7eb"/>
<text x="65" y="347.0" text-anchor="end" font-family="sans-serif" font-size="12">0.478</text>
<line x1="75" y1="271.0" x2="935" y2="271.0" stroke="#e5e7eb"/>
<text x="65" y="275.0" text-anchor="end" font-family="sans-serif" font-size="12">0.490</text>
<line x1="75" y1="199.0" x2="935" y2="199.0" stroke="#e5e7eb"/>
<text x="65" y="203.0" text-anchor="end" font-family="sans-serif" font-size="12">0.502</text>
<line x1="75" y1="127.0" x2="935" y2="127.0" stroke="#e5e7eb"/>
<text x="65" y="131.0" text-anchor="end" font-family="sans-serif" font-size="12">0.514</text>
<line x1="75" y1="55.0" x2="935" y2="55.0" stroke="#e5e7eb"/>
<text x="65" y="59.0" text-anchor="end" font-family="sans-serif" font-size="12">0.526</text>
<line x1="75" y1="415" x2="935" y2="415" stroke="#111827"/>
<line x1="75" y1="55" x2="75" y2="415" stroke="#111827"/>
<path d="M 75.0 255.8 L 197.9 296.6 L 320.7 296.6 L 443.6 296.6 L 566.4 331.9 L 689.3 345.2 L 812.1 345.2 L 935.0 415.0" fill="none" stroke="#2563eb" stroke-width="2"/>
<circle cx="75.0" cy="255.8" r="3" fill="#2563eb"/>
<circle cx="197.9" cy="296.6" r="3" fill="#2563eb"/>
<circle cx="320.7" cy="296.6" r="3" fill="#2563eb"/>
<circle cx="443.6" cy="296.6" r="3" fill="#2563eb"/>
<circle cx="566.4" cy="331.9" r="3" fill="#2563eb"/>
<circle cx="689.3" cy="345.2" r="3" fill="#2563eb"/>
<circle cx="812.1" cy="345.2" r="3" fill="#2563eb"/>
<circle cx="935.0" cy="415.0" r="3" fill="#2563eb"/>
<path d="M 75.0 55.0 L 197.9 122.9 L 320.7 117.4 L 443.6 187.7 L 566.4 172.7 L 689.3 206.3 L 812.1 175.5 L 935.0 174.4" fill="none" stroke="#6b7280" stroke-width="2"/>
<circle cx="75.0" cy="55.0" r="3" fill="#6b7280"/>
<circle cx="197.9" cy="122.9" r="3" fill="#6b7280"/>
<circle cx="320.7" cy="117.4" r="3" fill="#6b7280"/>
<circle cx="443.6" cy="187.7" r="3" fill="#6b7280"/>
<circle cx="566.4" cy="172.7" r="3" fill="#6b7280"/>
<circle cx="689.3" cy="206.3" r="3" fill="#6b7280"/>
<circle cx="812.1" cy="175.5" r="3" fill="#6b7280"/>
<circle cx="935.0" cy="174.4" r="3" fill="#6b7280"/>
<text x="75.0" y="437" text-anchor="middle" font-family="sans-serif" font-size="12">1</text>
<text x="197.9" y="437" text-anchor="middle" font-family="sans-serif" font-size="12">2</text>
<text x="320.7" y="437" text-anchor="middle" font-family="sans-serif" font-size="12">3</text>
<text x="443.6" y="437" text-anchor="middle" font-family="sans-serif" font-size="12">4</text>
<text x="566.4" y="437" text-anchor="middle" font-family="sans-serif" font-size="12">5</text>
<text x="689.3" y="437" text-anchor="middle" font-family="sans-serif" font-size="12">6</text>
<text x="812.1" y="437" text-anchor="middle" font-family="sans-serif" font-size="12">7</text>
<text x="935.0" y="437" text-anchor="middle" font-family="sans-serif" font-size="12">8</text>
<text x="480.0" y="466" text-anchor="middle" font-family="sans-serif" font-size="13">Iteration</text>
<text x="18" y="240.0" text-anchor="middle" transform="rotate(-90 18 240.0)" font-family="sans-serif" font-size="13">Composite score</text>
<rect x="75" y="38" width="12" height="12" fill="#2563eb"/>
<text x="92" y="49" font-family="sans-serif" font-size="12">iteration best</text>
<rect x="280" y="38" width="12" height="12" fill="#6b7280"/>
<text x="297" y="49" font-family="sans-serif" font-size="12">population median</text>
</svg>